REM DIRINDEX 1\2,1\3
REM DIRNAME cjc039,folder01,folder02
TITLE ""
FILE "0041-0080.mp3" MP3
  TRACK 01 AUDIO
    TITLE "0:"
    INDEX 01 00:00:00
  TRACK 02 AUDIO
    TITLE "2:cjc039_0041"
    INDEX 01 00:00:23
  TRACK 03 AUDIO
    TITLE "0:"
    INDEX 01 00:01:50
  TRACK 04 AUDIO
    TITLE "2:cjc039_0042"
    INDEX 01 00:02:22
  TRACK 05 AUDIO
    TITLE "0:"
    INDEX 01 00:03:43
  TRACK 06 AUDIO
    TITLE "2:cjc039_0043"
    INDEX 01 00:04:17
  TRACK 07 AUDIO
    TITLE "0:"
    INDEX 01 00:05:57
  TRACK 08 AUDIO
    TITLE "2:cjc039_0044"
    INDEX 01 00:06:30
  TRACK 09 AUDIO
    TITLE "0:"
    INDEX 01 00:07:47
  TRACK 10 AUDIO
    TITLE "2:cjc039_0045"
    INDEX 01 00:08:17
  TRACK 11 AUDIO
    TITLE "0:"
    INDEX 01 00:09:45
  TRACK 12 AUDIO
    TITLE "2:cjc039_0046"
    INDEX 01 00:10:14
  TRACK 13 AUDIO
    TITLE "0:"
    INDEX 01 00:11:40
  TRACK 14 AUDIO
    TITLE "2:cjc039_0047"
    INDEX 01 00:12:14
  TRACK 15 AUDIO
    TITLE "0:"
    INDEX 01 00:13:53
  TRACK 16 AUDIO
    TITLE "2:cjc039_0048"
    INDEX 01 00:14:27
  TRACK 17 AUDIO
    TITLE "0:"
    INDEX 01 00:15:58
  TRACK 18 AUDIO
    TITLE "2:cjc039_0049"
    INDEX 01 00:16:32
  TRACK 19 AUDIO
    TITLE "0:"
    INDEX 01 00:17:74
  TRACK 20 AUDIO
    TITLE "2:cjc039_0050"
    INDEX 01 00:18:50
  TRACK 21 AUDIO
    TITLE "0:"
    INDEX 01 00:20:16
  TRACK 22 AUDIO
    TITLE "2:cjc039_0051"
    INDEX 01 00:20:63
  TRACK 23 AUDIO
    TITLE "0:"
    INDEX 01 00:22:23
  TRACK 24 AUDIO
    TITLE "2:cjc039_0052"
    INDEX 01 00:22:68
  TRACK 25 AUDIO
    TITLE "0:"
    INDEX 01 00:24:37
  TRACK 26 AUDIO
    TITLE "2:cjc039_0053"
    INDEX 01 00:25:11
  TRACK 27 AUDIO
    TITLE "0:"
    INDEX 01 00:26:50
  TRACK 28 AUDIO
    TITLE "2:cjc039_0054"
    INDEX 01 00:27:24
  TRACK 29 AUDIO
    TITLE "0:"
    INDEX 01 00:28:62
  TRACK 30 AUDIO
    TITLE "2:cjc039_0055"
    INDEX 01 00:29:38
  TRACK 31 AUDIO
    TITLE "0:"
    INDEX 01 00:30:71
  TRACK 32 AUDIO
    TITLE "2:cjc039_0056"
    INDEX 01 00:31:47
  TRACK 33 AUDIO
    TITLE "0:"
    INDEX 01 00:32:70
  TRACK 34 AUDIO
    TITLE "2:cjc039_0057"
    INDEX 01 00:33:48
  TRACK 35 AUDIO
    TITLE "0:"
    INDEX 01 00:35:04
  TRACK 36 AUDIO
    TITLE "2:cjc039_0058"
    INDEX 01 00:35:55
  TRACK 37 AUDIO
    TITLE "0:"
    INDEX 01 00:37:08
  TRACK 38 AUDIO
    TITLE "2:cjc039_0059"
    INDEX 01 00:37:59
  TRACK 39 AUDIO
    TITLE "0:"
    INDEX 01 00:39:05
  TRACK 40 AUDIO
    TITLE "2:cjc039_0060"
    INDEX 01 00:39:52
  TRACK 41 AUDIO
    TITLE "0:"
    INDEX 01 00:41:22
  TRACK 42 AUDIO
    TITLE "2:cjc039_0061"
    INDEX 01 00:41:61
  TRACK 43 AUDIO
    TITLE "0:"
    INDEX 01 00:43:17
  TRACK 44 AUDIO
    TITLE "2:cjc039_0062"
    INDEX 01 00:43:64
  TRACK 45 AUDIO
    TITLE "0:"
    INDEX 01 00:45:10
  TRACK 46 AUDIO
    TITLE "2:cjc039_0063"
    INDEX 01 00:45:59
  TRACK 47 AUDIO
    TITLE "0:"
    INDEX 01 00:47:27
  TRACK 48 AUDIO
    TITLE "2:cjc039_0064"
    INDEX 01 00:47:72
  TRACK 49 AUDIO
    TITLE "0:"
    INDEX 01 00:49:23
  TRACK 50 AUDIO
    TITLE "2:cjc039_0065"
    INDEX 01 00:49:70
  TRACK 51 AUDIO
    TITLE "0:"
    INDEX 01 00:51:40
  TRACK 52 AUDIO
    TITLE "2:cjc039_0066"
    INDEX 01 00:52:08
  TRACK 53 AUDIO
    TITLE "0:"
    INDEX 01 00:53:70
  TRACK 54 AUDIO
    TITLE "2:cjc039_0067"
    INDEX 01 00:54:44
  TRACK 55 AUDIO
    TITLE "0:"
    INDEX 01 00:56:04
  TRACK 56 AUDIO
    TITLE "2:cjc039_0068"
    INDEX 01 00:56:59
  TRACK 57 AUDIO
    TITLE "0:"
    INDEX 01 00:58:13
  TRACK 58 AUDIO
    TITLE "2:cjc039_0069"
    INDEX 01 00:58:66
  TRACK 59 AUDIO
    TITLE "0:"
    INDEX 01 01:00:29
  TRACK 60 AUDIO
    TITLE "2:cjc039_0070"
    INDEX 01 01:01:09
  TRACK 61 AUDIO
    TITLE "0:"
    INDEX 01 01:02:44
  TRACK 62 AUDIO
    TITLE "2:cjc039_0071"
    INDEX 01 01:03:18
  TRACK 63 AUDIO
    TITLE "0:"
    INDEX 01 01:04:62
  TRACK 64 AUDIO
    TITLE "2:cjc039_0072"
    INDEX 01 01:05:40
  TRACK 65 AUDIO
    TITLE "0:"
    INDEX 01 01:07:04
  TRACK 66 AUDIO
    TITLE "2:cjc039_0073"
    INDEX 01 01:07:61
  TRACK 67 AUDIO
    TITLE "0:"
    INDEX 01 01:09:16
  TRACK 68 AUDIO
    TITLE "2:cjc039_0074"
    INDEX 01 01:09:73
  TRACK 69 AUDIO
    TITLE "0:"
    INDEX 01 01:11:25
  TRACK 70 AUDIO
    TITLE "2:cjc039_0075"
    INDEX 01 01:12:05
  TRACK 71 AUDIO
    TITLE "0:"
    INDEX 01 01:13:38
  TRACK 72 AUDIO
    TITLE "2:cjc039_0076"
    INDEX 01 01:14:14
  TRACK 73 AUDIO
    TITLE "0:"
    INDEX 01 01:15:25
  TRACK 74 AUDIO
    TITLE "2:cjc039_0077"
    INDEX 01 01:15:74
  TRACK 75 AUDIO
    TITLE "0:"
    INDEX 01 01:17:41
  TRACK 76 AUDIO
    TITLE "2:cjc039_0078"
    INDEX 01 01:18:19
  TRACK 77 AUDIO
    TITLE "0:"
    INDEX 01 01:19:34
  TRACK 78 AUDIO
    TITLE "2:cjc039_0079"
    INDEX 01 01:20:14
  TRACK 79 AUDIO
    TITLE "0:"
    INDEX 01 01:21:35
  TRACK 80 AUDIO
    TITLE "2:cjc039_0080"
    INDEX 01 01:22:13
  TRACK 81 AUDIO
    TITLE "0:"
    INDEX 01 01:23:44
